<svg width="50" height="51" viewBox="0 0 50 51" fill="none" xmlns="http://www.w3.org/2000/svg">
<circle cx="25" cy="25.7211" r="24.5" fill="black" stroke="white"/>
<path d="M25 37.3877C31.4433 37.3877 36.6666 32.1644 36.6666 25.721C36.6666 19.2777 31.4433 14.0544 25 14.0544C18.5567 14.0544 13.3333 19.2777 13.3333 25.721C13.3333 32.1644 18.5567 37.3877 25 37.3877Z" fill="#FEBE10" stroke="#FEBE10" stroke-width="1.3125"/>
<path d="M21.605 22.2211C21.8793 21.4414 22.4207 20.7839 23.1333 20.3651C23.8459 19.9463 24.6837 19.7932 25.4984 19.9329C26.313 20.0727 27.0519 20.4962 27.5842 21.1286C28.1166 21.7608 28.4078 22.5612 28.4066 23.3877C28.4066 25.7211 24.9066 26.8877 24.9066 26.8877" stroke="black" stroke-width="1.3125"/>
<path d="M25 31.7002V30.3877" stroke="black" stroke-width="1.3125"/>
</svg>
