<svg width="50" height="51" viewBox="0 0 50 51" fill="none" xmlns="http://www.w3.org/2000/svg">
<circle cx="25" cy="25.7211" r="24.5" fill="black" stroke="white"/>
<path d="M32.1462 27.4711V36.2817L28.4417 32.5771" stroke="#FEBE10" stroke-width="1.3125"/>
<path d="M21.8125 17.512H13.5L17.2046 21.2166" stroke="#FEBE10" stroke-width="1.3125"/>
<path d="M20.2706 18.9554C23.5322 15.8112 27.8859 14.0544 32.4162 14.0544H35.6667V17.0661C35.6667 21.4803 33.9985 25.7315 30.9964 28.9677L24.9538 35.4815L19.7978 30.1075L14.2409 24.768L20.2706 18.9554Z" fill="#FEBE10" stroke="#FEBE10" stroke-width="1.3125"/>
<path d="M14.6667 30.3878L19.3334 35.0544" stroke="#FEBE10" stroke-width="1.3125"/>
<path d="M30.942 20.5734C30.942 19.5504 30.1127 18.7211 29.0897 18.7211C28.0667 18.7211 27.2375 19.5504 27.2375 20.5734C27.2375 21.5963 28.0667 22.4257 29.0897 22.4257C30.1127 22.4257 30.942 21.5963 30.942 20.5734Z" stroke="black" stroke-width="1.3125"/>
</svg>
