<svg width="50" height="51" viewBox="0 0 50 51" fill="none" xmlns="http://www.w3.org/2000/svg">
<circle cx="25" cy="25.7212" r="24.5" fill="#131313" stroke="white"/>
<path d="M23.9511 33.9612C19.8951 33.9612 17.8071 31.8492 17.8071 28.1772H21.4791C21.4791 30.1932 22.3191 30.8412 23.8071 30.8412C25.2951 30.8412 26.1831 30.1692 26.1831 28.5612C26.1831 26.9772 25.3671 26.3052 23.9271 26.3052H21.9831V23.7852H23.9271C25.2231 23.7852 25.9671 23.2332 25.9671 21.8412C25.9671 20.4012 25.1511 19.7772 23.8071 19.7772C22.4871 19.7772 21.7191 20.3772 21.7191 22.1772H18.1191C18.1191 18.6972 20.0391 16.6812 24.0471 16.6812C27.6471 16.6812 29.8311 18.3372 29.8311 21.1692C29.8311 22.8972 29.0391 24.2412 27.1191 24.7932C29.2791 25.5132 30.0471 27.0492 30.0471 28.8732C30.0471 32.0892 27.7431 33.9612 23.9511 33.9612Z" fill="#FEBE10"/>
</svg>
