<svg width="49" height="61" viewBox="0 0 49 61" fill="none" xmlns="http://www.w3.org/2000/svg">
<path d="M34.6236 0.721069H38.153V9.54456H34.6236V0.721069ZM41.6824 4.25046H45.2118V11.3093H41.6824V4.25046ZM2.85907 4.25046H6.38846V11.3093H2.85907V4.25046ZM9.91786 0.721069H13.4473V9.54456H9.91786V0.721069ZM24.0354 28.9562C18.1971 28.9562 13.4473 33.7061 13.4473 39.5444C13.4473 45.3827 18.1971 50.1326 24.0354 50.1326C29.8738 50.1326 34.6236 45.3827 34.6236 39.5444C34.6236 33.7061 29.8738 28.9562 24.0354 28.9562ZM25.8001 40.2754L21.7538 44.3217L19.2582 41.8261L22.2706 38.8136V34.2503H25.8V40.2754H25.8001Z" fill="#FEBE10"/>
<path d="M47.7805 32.7593C47.1122 27.1406 45.3882 21.5512 44.1496 17.8357L43.544 16.0191L34.9869 19.6715L23.9216 1.29297L14.3599 19.7088L4.49521 16.1148L3.92145 17.8357C2.68275 21.5512 0.958636 27.1405 0.290404 32.7593C-0.45218 39.0028 0.230993 44.2768 2.32122 48.4345C6.20285 56.1569 14.7201 60.9729 24.0355 60.7109C33.3235 60.9723 41.859 56.1751 45.7497 48.4345L45.7496 48.4346C47.8399 44.2769 48.5232 39.0029 47.7805 32.7593ZM24.0355 53.662C16.2509 53.662 9.91789 47.3289 9.91789 39.5444C9.91789 31.76 16.2509 25.4269 24.0355 25.4269C31.8199 25.4269 38.1531 31.76 38.1531 39.5444C38.1531 47.3289 31.8199 53.662 24.0355 53.662Z" fill="#FEBE10"/>
</svg>
